<svg xmlns="http://www.w3.org/2000/svg" width="400" height="400" viewBox="0 0 400 400">
  <rect width="400" height="400" fill="#f1f5f9"/>
  <rect x="80" y="140" width="240" height="140" rx="12" fill="#334155"/>
  <rect x="100" y="160" width="200" height="80" rx="6" fill="#1e293b"/>
  <rect x="110" y="170" width="80" height="60" rx="4" fill="#3b82f6"/>
  <rect x="200" y="170" width="90" height="60" rx="4" fill="#1d4ed8"/>
  <rect x="80" y="280" width="20" height="40" rx="4" fill="#475569"/>
  <rect x="110" y="280" width="20" height="40" rx="4" fill="#475569"/>
  <rect x="140" y="280" width="20" height="40" rx="4" fill="#475569"/>
  <rect x="170" y="280" width="20" height="40" rx="4" fill="#475569"/>
  <rect x="200" y="280" width="20" height="40" rx="4" fill="#475569"/>
  <rect x="230" y="280" width="20" height="40" rx="4" fill="#475569"/>
  <rect x="260" y="280" width="20" height="40" rx="4" fill="#475569"/>
  <rect x="290" y="280" width="10" height="40" rx="4" fill="#475569"/>
  <text x="200" y="370" text-anchor="middle" font-family="sans-serif" font-size="14" fill="#94a3b8">GPU</text>
</svg>